<?xml version="1.0" encoding="utf-8"?>
<!-- Generator: Adobe Illustrator 27.5.0, SVG Export Plug-In . SVG Version: 6.00 Build 0)  -->
<svg version="1.1" id="_x31_" xmlns="http://www.w3.org/2000/svg" xmlns:xlink="http://www.w3.org/1999/xlink" x="0px" y="0px"
	 viewBox="0 0 450 450" style="enable-background:new 0 0 450 450;" xml:space="preserve">
<g>
	<g id="background_9_">
		<g>
			<defs>
				
					<ellipse id="SVGID_1_" transform="matrix(0.7071 -0.7071 0.7071 0.7071 -92.8543 230.9329)" cx="232.334" cy="227.552" rx="125.547" ry="125.547"/>
			</defs>
			<use xlink:href="#SVGID_1_"  style="overflow:visible;fill:#FCD9D9;"/>
			<clipPath id="SVGID_00000105422041438092932060000000744812594102377616_">
				<use xlink:href="#SVGID_1_"  style="overflow:visible;"/>
			</clipPath>
			<path style="clip-path:url(#SVGID_00000105422041438092932060000000744812594102377616_);fill:#EA9292;" d="M193.407,110.885
				v72.803c0,1.208,0.98,2.188,2.188,2.188h60.254c1.209,0,2.188-0.98,2.188-2.188v-72.803c0-1.209-0.98-2.188-2.188-2.188h-60.254
				C194.386,108.697,193.407,109.677,193.407,110.885z"/>
			<path style="clip-path:url(#SVGID_00000105422041438092932060000000744812594102377616_);fill:#EA9292;" d="M347.534,230.69
				c-1.818,1.32-10.846,1.89-16.392,1.8c-0.185,0-0.37,0-0.586-0.03v27.93c0,1.32,0,2.79-0.031,4.38
				c-0.462,30.57-5.084,103.98-5.084,103.98h-1.387c0.493,0.66,1.078,1.41,1.849,2.16c2.219,2.19,1.325,7.89,1.325,7.89h-16.146
				c0,0,0.524-3.27,1.202-5.37c0.647-2.07,4.314-4.68,4.314-4.68h-0.801l-7.056-85.38l-4.345,1.14l-2.341,84.24h-0.616
				c0.4,1.32,1.233,4.29,1.294,5.76c0.092,1.89-0.586,4.11-0.586,4.11s-22.616,0.39-23.201,0c0,0-4.067,0-3.759-1.74
				c0.277-1.71,14.666-8.13,14.666-8.13H289.3c0,0-4.961-63.18-6.009-92.88c-0.154-4.05-0.277-8.07-0.4-12.03
				c-0.401-11.97-0.77-23.19-1.017-31.68c-0.278,1.35-0.493,2.37-0.586,2.85c-0.585,2.85-10.322,20.19-10.507,22.98
				c-0.216,2.76-1.695,11.49-1.571,13.2c0.092,1.71,1.079,4.98,0.586,5.46c-0.493,0.48-1.387,0.27-1.387,0.27s0.678,1.65,0.493,2.13
				c-0.185,0.48-1.571,0.09-1.571,0.09s-0.093,1.83-0.493,1.83s-1.202-0.12-1.202-0.12s-0.185,2.31-1.356,1.26
				c-1.171-1.05-6.779-8.82-6.193-13.11c0.585-4.32,7.364-15.78,7.364-15.78s5.793-22.08,6.039-24.24
				c0.216-1.68,1.14-10.59,1.54-14.67c0.061-0.6,0.123-1.08,0.154-1.44c0-0.09,0-0.18,0.031-0.3c0-0.09,0.031-0.21,0.031-0.33
				c0.986-6.15,3.974-24.36,5.577-26.91c1.016-1.59,4.899-4.44,8.442-6.84c0.123-0.09,0.216-0.18,0.339-0.24l1.263-0.84
				c0.616-0.42,1.202-0.78,1.726-1.14l5.546-3.72l-0.185-6.96c0,0-7.272,0.09-9.952-2.97c-2.65-3.06-2.527-9.87-2.527-9.87
				s-2.804-1.95-2.804-4.14c0-2.22,2.804-2.13,3.79-4.35c0.986-2.19-0.216-8.16,2.034-12.75c0.154-0.33,0.339-0.63,0.554-0.93
				c-2.711-0.69-5.176-2.13-5.176-5.1c0-12.06,11.801-11.4,11.801-11.4s2.465-3.45,9.244-3.15c6.779,0.27,8.381,8.43,8.381,8.43
				s4.221-6.24,9.829-0.6c1.294,1.32,1.972,2.61,2.249,3.84c0.924,4.11-2.557,7.38-2.557,7.38s5.454-0.9,6.193,2.49
				c1.664,7.65-11.678,31.92-14.358,32.55c-2.034,0.48-3.297,1.08-3.975-0.63c-1.695,0.27-3.205,0.33-3.205,0.33l0.801,6.9
				l3.728,1.02v0.03l1.849,0.51c0,0,0,0,0.031,0c4.283,1.5,14.944,5.43,18.487,8.55c2.557,2.28,6.563,10.17,9.49,16.44
				c0.031,0.09,0.061,0.15,0.123,0.21c0.986,2.13,1.849,4.08,2.496,5.55c0.308,0.78,0.678,1.65,1.078,2.52c0,0.03,0,0.03,0,0.06
				c2.342,5.49,4.992,12.15,5.361,14.97c0.031,0.03,0.061,0.06,0.061,0.09C349.198,222.56,349.383,229.34,347.534,230.69z"/>
			<path style="clip-path:url(#SVGID_00000105422041438092932060000000744812594102377616_);fill:#EA9292;" d="M233.699,203.372
				c0,0,0.824,0.755,0.641,1.54s-4.09,4.904-8.515,5.533c-2.868,0.409-8.666,1.038-12.389,1.415l5.737,4.527l-6.256,6.508v59.735
				c0,3.804-2.99,6.885-6.683,6.885h-93.106c-3.692,0-6.683-3.081-6.683-6.885V84.875c0-3.804,2.991-6.885,6.683-6.885h93.106
				c3.693,0,6.683,3.081,6.683,6.885v112.9c2.289-0.534,4.303-0.849,4.791-1.069c2.319-0.912,3.54-0.849,2.96,0.503
				c-0.915,2.201-4.547,2.546-5.157,3.395c-0.58,0.818,3.967,0.66,5.707,0.597c1.739-0.094,5.706-2.264,7.507-1.949
				c1.618,0.283,1.221,1.163,1.099,1.383c0.275-0.063,1.831-0.566,2.319-0.126c0.519,0.44,0,1.164,0,1.164s1.404-0.315,2.014,0.314
				C234.767,202.585,233.699,203.372,233.699,203.372z"/>
			<g style="clip-path:url(#SVGID_00000105422041438092932060000000744812594102377616_);">
				<path style="fill:#EA9292;" d="M148.057,319.339H87.641c-1.653,0-2.994-1.34-2.994-2.994v-66.621
					c0-1.654,1.34-2.994,2.994-2.994h60.416c1.653,0,2.994,1.34,2.994,2.994v66.621
					C151.051,317.998,149.711,319.339,148.057,319.339z"/>
				<path style="fill:#EA9292;" d="M142.068,321.094h-48.44c-5.921,0-10.737-4.816-10.737-10.737v-54.645
					c0-5.921,4.816-10.737,10.737-10.737h48.44c5.921,0,10.737,4.816,10.737,10.737v54.645
					C152.805,316.277,147.989,321.094,142.068,321.094z M93.629,248.484c-3.984,0-7.228,3.243-7.228,7.228v54.645
					c0,3.984,3.243,7.227,7.228,7.227h48.44c3.984,0,7.228-3.243,7.228-7.227v-54.645c0-3.984-3.244-7.228-7.228-7.228H93.629z"/>
			</g>
		</g>
	</g>
	<g>
		<path style="fill:#81F2EF;" d="M211.722,263.735h-88.699c-1.069,0-1.935-0.866-1.935-1.935V87.17c0-1.069,0.866-1.935,1.935-1.935
			h88.699c1.069,0,1.935,0.866,1.935,1.935V261.8C213.658,262.869,212.791,263.735,211.722,263.735z"/>
		<path style="fill:#2D918A;" d="M214.768,224.834l-23.88,23.4l0.42,21.33h-65.55c0-0.18,0-0.3,0-0.3l0.12-33.03
			c0,0-1.44-36.3,0.39-44.85c0.57-3-0.12-5.79,3.09-8.43c-2.01-1.53-3.45-3.24-3.99-5.13c-3-9.93,1.8-11.7,1.8-11.7
			s-0.03-0.03-0.03-0.06c-0.09-0.12-0.18-0.24-0.3-0.36c-0.03-0.03-0.06-0.06-0.06-0.09c-1.74-2.1-3.03-5.04-3.69-9.09
			c-1.5-8.85,3.9-22.65,10.77-28.98c6.87-6.33,12.21-4.02,12.21-4.02s-0.51-6.54,6.9-8.79c7.41-2.25,9.66,2.19,9.66,2.19
			s2.82-5.49,10.56-5.4c7.71,0.09,11.61,7.62,11.61,7.62s4.53,0.18,8.01,1.47c3.48,1.29,7.47,2.52,9.66,14.01
			c1.89,10.17-2.58,14.34-7.29,15.3c0.06,3.54,0.03,9.39-0.78,12.33c-1.2,4.41-6.54,6.75-6.54,6.75s3.39,3.3,1.62,11.31
			c-0.54,2.61-1.38,4.95-2.46,6.99c0.36,0.81,0.63,1.71,0.87,2.7c1.38,6.09,2.01,22.23,2.01,22.23l0.12,3.9l12.63-11.49l2.85,2.1
			c0.54-1.08,1.2-2.25,1.8-3.09c0.9-1.35,4.41-2.31,7.47-2.97V224.834z"/>
	</g>
	<g>
		<path style="fill:#6A8F9B;" d="M213.134,75.687h-91.53c-3.63,0-6.57,2.94-6.57,6.57v188.7c0,3.63,2.94,6.57,6.57,6.57h91.53
			c3.63,0,6.57-2.94,6.57-6.57v-188.7C219.704,78.627,216.764,75.687,213.134,75.687z M213.644,257.937c0,3.21-2.58,5.79-5.79,5.79
			h-80.97c-3.21,0-5.79-2.58-5.79-5.79V91.047c0-3.21,2.58-5.82,5.79-5.82h80.97c3.21,0,5.79,2.61,5.79,5.82V257.937z"/>
		<circle style="fill:#6A8F9B;" cx="167.373" cy="85.234" r="8.817"/>
		<path style="fill:#1E5259;" d="M169.945,85.234c0,1.421-1.152,2.572-2.572,2.572s-2.572-1.152-2.572-2.572
			s1.152-2.572,2.572-2.572S169.945,83.814,169.945,85.234z"/>
	</g>
	<g>
		<g>
			<path style="fill:#773128;" d="M200.455,136.309c0,0,0.508,10.846-0.656,15.263c-1.158,4.396-6.356,6.758-6.356,6.758
				s3.283,3.298,1.596,11.294c-1.995,9.46-7.413,15.563-14.033,15.173c-2.592-0.152-44.357-4.794-48.122-17.651
				c-2.905-9.922,1.751-11.688,1.751-11.688s-6.452-7.906-2.903-18.475c8.218-24.475,46.781-12.926,46.781-12.926l18.565,3.683
				L200.455,136.309z"/>
			<path style="fill:#F9AA8F;" d="M186.845,122.853v3.641c0,0-3.641,17.39-4.536,21.274c-0.915,3.905-2.603,7.302-7.708,9.437
				c-1.424,0.59-4.007,1.078-6.102,1.017c-0.142,1.688-0.346,3.824-0.346,3.824l10.637,5.207c0,0-8.908,14.623-10.597,14.623
				c-1.688,0-17.898-16.373-17.898-16.373l9.03-4.617l0.326-4.8c-1.2-0.529-2.665-1.993-3.234-2.705
				c-0.977-1.2-1.709-2.603-2.197-4.007v-0.02c-0.793-2.217-1.037-4.454-0.875-6.122c0.02-0.183,0.061-0.468,0.102-0.834
				c-0.752,0.244-1.912,0.325-3.336-0.468c-2.603-1.424-4.027-5.756-1.444-8.705c1.444-1.647,4.596-1.83,6.325-0.346
				c0.895-6.305,1.688-13.18,1.993-13.403c0.508-0.386,22.983-2.603,22.983-2.603L186.845,122.853z"/>
			<path style="fill:#CC6148;" d="M159.648,156.087c0,0,2.304,1.136,5.355,1.558c3.051,0.422,3.501,0.579,3.501,0.579l-0.348,3.826
				l8.579,2.886l1.669,2.13l-12.233-3.287l0.239-4.09c0,0-2.067-0.703-3.928-1.612C160.621,157.169,159.648,156.087,159.648,156.087
				z"/>
			<path style="fill:#CC6148;" d="M173.167,147.7c-0.478,0-0.82-0.041-0.867-0.047c-0.278-0.035-0.475-0.29-0.44-0.568
				c0.035-0.278,0.293-0.486,0.569-0.439c0.026,0,2.909,0.328,3.158-1.02c0.226-1.219,0.144-3.996-0.228-7.62
				c-0.281-2.754,2.428-4.055,2.546-4.107c0.243-0.114,0.554-0.012,0.674,0.243s0.009,0.557-0.243,0.677
				c-0.088,0.041-2.171,1.055-1.963,3.082c0.223,2.186,0.548,6.117,0.217,7.913C176.284,147.451,174.33,147.7,173.167,147.7z"/>
			<path style="fill:#CC6148;" d="M169.78,151.681c-0.471,0-0.999-0.047-1.515-0.19c-1.172-0.325-2.314-1.442-2.361-1.491
				c-0.199-0.196-0.202-0.518-0.003-0.718c0.193-0.196,0.519-0.202,0.718-0.006c0.009,0.012,1.002,0.982,1.916,1.236
				c1.254,0.343,2.64,0,2.654-0.003c0.29-0.076,0.551,0.097,0.619,0.366c0.07,0.273-0.094,0.551-0.367,0.618
				C171.397,151.505,170.689,151.681,169.78,151.681z"/>
			<path style="fill:#CC6148;" d="M154.189,139.453c-0.226,0-0.431-0.152-0.492-0.378c-0.017-0.064-0.401-1.371-2.051-1.611
				c-0.278-0.041-0.472-0.299-0.431-0.577c0.041-0.275,0.311-0.463,0.577-0.43c2.338,0.343,2.868,2.276,2.889,2.358
				c0.07,0.272-0.094,0.551-0.364,0.621C154.273,139.447,154.23,139.453,154.189,139.453z"/>
			<path style="fill:#773128;" d="M169.98,133.363c0,0,0.325-1.436,0.017-2.079s-2.252-0.645-4.243-0.017
				c-1.992,0.627-3.066,2.075-3.066,2.075s2.856-0.575,4.394-0.579C168.62,132.757,169.98,133.363,169.98,133.363z"/>
			<path style="fill:#773128;" d="M184.434,137.606c0,0-0.051-1.505-0.719-2.532c-0.668-1.028-2.949-2.104-3.826-2.104
				c-0.877,0-2.311,1.294-2.311,1.294s2.212,0.415,3.483,0.962C182.332,135.773,184.434,137.606,184.434,137.606z"/>
			<path style="fill:#773128;" d="M164.943,138.736c-0.212,1.05,0.131,2.005,0.764,2.133c0.634,0.128,1.319-0.62,1.531-1.67
				c0.212-1.05-0.13-2.005-0.763-2.133C165.84,136.938,165.154,137.686,164.943,138.736z"/>
			<path style="fill:#773128;" d="M178.098,140.9c-0.212,1.05,0.13,2.005,0.764,2.133c0.634,0.128,1.319-0.62,1.531-1.67
				c0.212-1.05-0.13-2.005-0.764-2.133C178.995,139.102,178.31,139.85,178.098,140.9z"/>
			<path style="fill:#A54D3C;" d="M168.815,118.848c0,0,3.073,7.058,7.4,9.135c4.327,2.077,5.491,1.52,5.491,1.52
				s0.435,2.685,5.891,6.741c3.377,2.51,7.616,3.332,11.165,3.202c5.104-0.187,10.905-3.981,8.828-15.492
				c-2.077-11.511-5.972-12.722-9.347-14.021c-3.376-1.298-7.746-1.471-7.746-1.471s-3.767-7.531-11.25-7.617
				c-7.483-0.087-10.22,5.41-10.22,5.41s-2.195-4.457-9.378-2.207s-6.669,8.798-6.669,8.798s-5.195-2.3-11.859,4.018
				c-6.664,6.318-11.876,20.124-10.453,28.986c1.611,10.032,6.939,13.27,13.467,13.924c12.01,1.203,9.509-15.702,10.175-20.722
				c0.667-5.031,0.952-5.881,0.952-5.881s3.334,2.355,8.622-4.648C167.659,123.522,168.815,118.848,168.815,118.848z"/>
			<path style="fill:#F9AA8F;" d="M156.581,134.548l-2.359,14.807c-0.793-2.217-1.037-4.454-0.875-6.122
				c0.02-0.183,0.061-0.468,0.102-0.834c-0.752,0.244-1.912,0.325-3.336-0.468c-2.603-1.424-4.027-5.756-1.444-8.705
				c1.444-1.647,4.596-1.83,6.325-0.346L156.581,134.548z"/>
		</g>
		<g>
			<path style="fill:#FF7769;" d="M188.968,263.714h-32.49l-5.22-48.96l-1.56-14.85l-0.42-3.93l-0.3-2.7l-1.65-15.57l-1.11-10.32
				l4.35-2.16l0.57-0.3c0.15-0.06,0.27-0.12,0.39-0.18c0.06-0.03,0.12-0.06,0.15-0.06c0.03-0.03,0.06-0.03,0.06-0.03l2.4-1.17
				l0.09-0.06c0,0,0,0,0.03,0.03c0.63,0.66,8.46,8.82,11.85,11.7c3.24,2.76,4.5-1.29,5.37-3.48c0.57-1.44,1.11-4.23,1.41-6.09
				c0.09-0.42,0.15-0.81,0.21-1.11c0.03-0.27,0.06-0.45,0.09-0.6c0-0.06,0.03-0.09,0.03-0.12s0-0.06,0-0.06l0.48,0.21l0.06,0.03
				l1.05,0.45l2.25,0.99h0.03l3.93,1.71l0.45,5.4l0.51,6.06v0.03l0.51,6.21l0.12,1.44v0.03l0.63,7.92v0.03L188.968,263.714z"/>
			<path style="fill:#FCF9F9;" d="M171.208,263.714h-37.98c0.03-2.82,0.06-5.13,0.06-5.13l0.12-33.03c0,0-1.41-36.3,0.36-44.85
				c0.57-3-0.12-5.79,3-8.43c0.3-0.24,0.63-0.51,0.99-0.75c2.58-1.71,7.14-3.84,10.32-5.28c0.99-0.45,1.86-0.81,2.49-1.08
				c0.21-0.09,0.39-0.18,0.57-0.24c0.15-0.06,0.27-0.12,0.39-0.18c0.06-0.03,0.12-0.06,0.15-0.06c0.03-0.03,0.06-0.03,0.06-0.03
				l0.03,0.03c0,0,0,0,0.03,0.03c0.21,0.33,1.71,2.55,3.57,5.82c1.68,2.97,3.66,6.87,5.22,10.95c0.57,1.44,1.05,2.88,1.47,4.35
				c2.19,7.68,6.33,18.93,7.8,39.48c0.15,1.92,0.24,3.9,0.36,5.94v0.12C170.458,237.284,170.968,253.244,171.208,263.714z"/>
			<path style="fill:#DD4231;" d="M151.082,178.287l7.729,5.064l-3.64,7.607c0,0,6.102,9.275,9.478,14.908
				c3.376,5.614,5.568,25.518,5.568,25.518c-1.18-23.247-3.351-38.393-5.69-46.589c-2.888-10.19-9.864-20.502-10.291-21.132
				l-0.02-0.041c0,0-0.101-0.427-0.468-0.427c-0.366,0-2.929,1.017-3.152,1.403c-0.02,0.061-0.041,0.264-0.041,0.61
				C150.533,167.873,151.082,178.287,151.082,178.287z"/>
			<path style="fill:#FCF9F9;" d="M196.888,263.714h-18.27c-0.03-8.7-0.15-23.31-0.21-31.23v-4.47c-0.15-15.51-0.36-34.47-0.66-39.6
				c-0.06-1.23-0.18-2.58-0.3-3.99c-0.39-4.17-0.99-8.82-1.53-12.6c-0.33-2.31-0.63-4.32-0.84-5.67c-0.06-0.3-0.09-0.57-0.12-0.78
				c-0.06-0.45-0.12-0.81-0.15-0.99c0-0.06,0-0.09-0.03-0.12c0-0.03,0-0.06,0-0.06s0.75,0.15,1.83,0.48h0.03
				c0.51,0.18,1.14,0.39,1.8,0.66c3.21,1.32,3.78,1.74,6.81,3.45c2.91,1.65,5.79,3.93,7.38,7.83c0.36,0.81,0.63,1.71,0.84,2.7
				c1.35,6.09,1.95,22.23,1.95,22.23l0.81,28.14L196.888,263.714z"/>
			<path style="fill:#DD4231;" d="M173.247,163.936c0,0,2.461,15.112,2.969,24.203c0.305,5.146,2.045,28.828,2.187,44.347
				c0.265-1.526,0.904-18.68,1.799-23.785c0.956-5.451,4.231-19.83,4.231-19.83l-4.841-6.915l4.109-5.878
				c0,0-5.248-8.563-6.814-11.003c-0.244-0.366-0.407-0.61-0.447-0.651c-0.305-0.305-2.766-1.078-3.193-0.997
				C172.841,163.529,173.247,163.936,173.247,163.936z"/>
			<g>
				<path style="fill:#81F2EF;" d="M149.99,199.974c-0.563,0-1.016-0.454-1.016-1.017v-7.594c0-0.563,0.454-1.017,1.016-1.017
					s1.017,0.454,1.017,1.017v7.594C151.007,199.52,150.553,199.974,149.99,199.974z"/>
			</g>
			<g>
				<path style="fill:#2D918A;" d="M145.563,203.408c-0.563,0-1.016-0.454-1.016-1.016v-14.019c0-0.563,0.454-1.016,1.016-1.016
					s1.017,0.454,1.017,1.016v14.019C146.58,202.954,146.126,203.408,145.563,203.408z"/>
			</g>
			<g>
				<circle style="fill:#2D918A;" cx="145.563" cy="186.942" r="1.43"/>
				<path style="fill:#2D918A;" d="M145.558,184.484c-1.35,0-2.43,1.11-2.43,2.46c0,0.99,0.57,1.83,1.41,2.25
					c0.3,0.12,0.66,0.21,1.02,0.21s0.72-0.09,1.02-0.21c0.84-0.39,1.44-1.26,1.44-2.25
					C148.018,185.594,146.908,184.484,145.558,184.484z M145.138,186.944c0-0.24,0.21-0.42,0.42-0.42c0.24,0,0.42,0.18,0.42,0.42
					C145.978,187.394,145.138,187.394,145.138,186.944z"/>
			</g>
			<path style="fill:#939AA0;" d="M155.126,195.966h-13.157c0,0-1.473,19.739,6.579,19.739
				C156.599,215.705,155.126,195.966,155.126,195.966z"/>
			<path style="fill:#F9AA8F;" d="M209.215,198.727c0,0,1.757-3.834,3.048-5.766c1.595-2.389,10.981-3.533,12.158-3.992
				c2.275-0.887,3.466-0.832,2.9,0.478c-0.898,2.081-4.456,2.434-5.05,3.23c-0.594,0.795,3.885,0.64,5.592,0.566
				c1.706-0.074,5.615-2.152,7.395-1.855c1.781,0.297,1.039,1.336,1.039,1.336s1.781-0.594,2.3-0.148c0.519,0.445,0,1.113,0,1.113
				s1.41-0.297,2.003,0.297c0.594,0.593-0.445,1.335-0.445,1.335s0.812,0.726,0.629,1.476c-0.184,0.75-4.018,4.682-8.395,5.275
				c-4.377,0.594-15.58,1.706-15.58,1.706L209.215,198.727z"/>
			<polygon style="fill:#FCF9F9;" points="207.788,193.955 225.873,207.733 193.573,240.371 192.649,208.148 			"/>
		</g>
	</g>
	<g id="window_3_7_">
		<path style="fill:#FCF9F9;" d="M260.213,303.237l-0.06-13.673c0,0-1.355,3.184-3.94,5.044c-2.606,1.875-7.333,2.102-7.333,2.102
			H148.551c-3.625,0-6.565,2.939-6.565,6.565v60.563c0,3.626,2.939,6.565,6.565,6.565h105.1c3.626,0,6.565-2.939,6.565-6.565
			v-60.563C260.216,303.262,260.213,303.25,260.213,303.237z"/>
		<g>
			<path style="fill:#FCF9F9;" d="M183.312,319.339h-32.031H183.312z"/>
			<path style="fill:#939AA0;" d="M183.312,320.464h-32.03c-0.621,0-1.125-0.504-1.125-1.125s0.504-1.125,1.125-1.125h32.03
				c0.621,0,1.125,0.504,1.125,1.125S183.934,320.464,183.312,320.464z"/>
		</g>
		<g>
			<path style="fill:#FCF9F9;" d="M204.378,336.111h-53.097H204.378z"/>
			<path style="fill:#939AA0;" d="M204.377,337.236h-53.095c-0.621,0-1.125-0.504-1.125-1.125c0-0.621,0.504-1.125,1.125-1.125
				h53.095c0.621,0,1.125,0.504,1.125,1.125C205.502,336.732,204.998,337.236,204.377,337.236z"/>
		</g>
		<g>
			<path style="fill:#FCF9F9;" d="M204.378,327.724h-53.097H204.378z"/>
			<path style="fill:#939AA0;" d="M204.377,328.848h-53.095c-0.621,0-1.125-0.504-1.125-1.125c0-0.621,0.504-1.125,1.125-1.125
				h53.095c0.621,0,1.125,0.504,1.125,1.125C205.502,328.345,204.998,328.848,204.377,328.848z"/>
		</g>
		<g>
			<path style="fill:#FCF9F9;" d="M192.663,344.445h-41.381H192.663z"/>
			<path style="fill:#939AA0;" d="M192.664,345.571h-41.382c-0.621,0-1.125-0.504-1.125-1.125c0-0.621,0.504-1.125,1.125-1.125
				h41.382c0.621,0,1.125,0.504,1.125,1.125C193.789,345.067,193.285,345.571,192.664,345.571z"/>
		</g>
		<g>
			<path style="fill:#FCF9F9;" d="M192.663,360.061h-41.381H192.663z"/>
			<path style="fill:#939AA0;" d="M192.664,361.186h-41.382c-0.621,0-1.125-0.504-1.125-1.125c0-0.621,0.504-1.125,1.125-1.125
				h41.382c0.621,0,1.125,0.504,1.125,1.125C193.789,360.682,193.285,361.186,192.664,361.186z"/>
		</g>
		<g>
			<path style="fill:#FCF9F9;" d="M183.312,352.253h-32.031H183.312z"/>
			<path style="fill:#939AA0;" d="M183.312,353.379h-32.03c-0.621,0-1.125-0.504-1.125-1.125s0.504-1.125,1.125-1.125h32.03
				c0.621,0,1.125,0.504,1.125,1.125S183.934,353.379,183.312,353.379z"/>
		</g>
		
			<rect x="151.281" y="306.854" transform="matrix(-1 -1.224647e-16 1.224647e-16 -1 362.2045 619.635)" style="fill:#939AA0;" width="59.642" height="5.927"/>
		<g>
			<path style="fill:#939AA0;" d="M191.064,297.835h-9.433c-0.621,0-1.125-0.504-1.125-1.125c0-0.621,0.504-1.125,1.125-1.125h9.433
				c0.621,0,1.125,0.504,1.125,1.125C192.189,297.331,191.686,297.835,191.064,297.835z"/>
		</g>
		<g>
			<path style="fill:#939AA0;" d="M253.651,371.528h-105.1c-4.239,0-7.69-3.451-7.69-7.691v-60.563c0-4.239,3.451-7.69,7.69-7.69
				h20.25c0.622,0,1.125,0.504,1.125,1.125c0,0.621-0.503,1.125-1.125,1.125h-20.25c-3,0-5.44,2.44-5.44,5.44v60.563
				c0,3,2.44,5.441,5.44,5.441h105.1c3,0,5.44-2.441,5.44-5.441v-23.001c0-0.621,0.504-1.125,1.125-1.125s1.125,0.504,1.125,1.125
				v23.001C261.341,368.077,257.89,371.528,253.651,371.528z"/>
		</g>
		<g>
			<path style="fill:#FF7769;" d="M221.181,312.781v12.143c0,0,6.415,5.426,5.074,11.187c-1.34,5.76-5.553,8.898-10.436,8.334
				c-4.883-0.564-8.234-1.138-9.862,0.968C204.33,347.52,205,357.86,205,357.86h4.883c0,0-1.053-5.266,0.287-7.181
				c1.34-1.915,7.601,6.128,16.486,5.84c8.886-0.287,23.631-11.777,23.44-23.936c-0.192-12.16-9.958-16.181-14.17-15.702
				c-4.213,0.479-9.269,4.309-9.269,4.309v-8.409H221.181z"/>
			<path style="fill:#DD4231;" d="M209.882,358.986h-4.881c-0.592,0-1.084-0.46-1.122-1.052c-0.117-1.799-0.609-10.884,1.19-13.21
				c1.898-2.461,5.235-2.068,9.861-1.515l1.02,0.12c4.397,0.498,8.036-2.426,9.211-7.474c1.169-5.033-4.647-10.025-4.705-10.075
				c-0.252-0.214-0.398-0.527-0.398-0.859v-12.14c0-0.621,0.504-1.125,1.125-1.125h5.475c0.621,0,1.125,0.504,1.125,1.125v6.278
				c1.937-1.225,5.118-2.968,8.016-3.299c2.493-0.284,6.477,0.75,9.82,3.688c2.496,2.195,5.493,6.252,5.602,13.116
				c0.205,12.929-15.141,24.773-24.527,25.078c-5.519,0.226-10.195-2.725-13.218-4.649c-0.894-0.572-1.981-1.263-2.514-1.441
				c-0.572,1.233-0.346,4.225,0.026,6.088c0.064,0.331-0.021,0.674-0.235,0.932C210.538,358.834,210.219,358.986,209.882,358.986z
				 M206.064,356.736h2.49c-0.255-1.881-0.463-5.051,0.691-6.7c1.172-1.661,3.146-0.395,5.438,1.061
				c2.956,1.881,7.081,4.506,11.938,4.298c8.537-0.275,22.529-11.417,22.348-22.793c-0.094-6.041-2.684-9.568-4.837-11.461
				c-2.813-2.473-6.173-3.39-8.08-3.141c-3.861,0.44-8.669,4.052-8.716,4.087c-0.337,0.261-0.797,0.305-1.18,0.111
				c-0.381-0.19-0.624-0.58-0.624-1.008v-7.283h-3.225v10.514c1.468,1.371,6.331,6.41,5.045,11.944
				c-1.432,6.141-6.1,9.87-11.66,9.196l-1.025-0.12c-3.885-0.454-6.695-0.794-7.817,0.659
				C206.064,347.115,205.845,352.198,206.064,356.736z"/>
		</g>
	</g>
	<g id="window_2_9_">
		<path style="fill:#FCF9F9;" d="M266.634,116.873v-13.61c0-3.626-2.939-6.565-6.565-6.565h-51.5c-3.626,0-6.565,2.939-6.565,6.565
			v64.05c0,3.626,2.939,6.565,6.565,6.565h20.795h30.705c3.626,0,6.565-2.939,6.565-6.565v-29.707v-9.094V116.873z"/>
		<g>
			<path style="fill:#FCF9F9;" d="M220.862,165.443c-3.85,0-6.97-3.121-6.97-6.97v-32.655c0-3.85,3.121-6.97,6.97-6.97
				c3.85,0,6.97,3.121,6.97,6.97v32.655C227.832,162.322,224.711,165.443,220.862,165.443z"/>
			<path style="fill:#939AA0;" d="M220.862,166.567c-4.465,0-8.095-3.63-8.095-8.095v-32.654c0-4.465,3.63-8.095,8.095-8.095
				c4.465,0,8.095,3.63,8.095,8.095v32.654C228.957,162.937,225.327,166.567,220.862,166.567z M220.862,119.973
				c-3.223,0-5.845,2.622-5.845,5.845v32.654c0,3.223,2.622,5.845,5.845,5.845c3.223,0,5.845-2.622,5.845-5.845v-32.654
				C226.707,122.595,224.085,119.973,220.862,119.973z"/>
		</g>
		<g>
			<path style="fill:#FF7C76;" d="M227.831,142.145v17.028c0,3.464-3.122,6.266-6.966,6.266s-6.973-2.803-6.973-6.266v-17.028
				H227.831z"/>
			<path style="fill:#DD4231;" d="M220.865,166.564c-4.468,0-8.098-3.316-8.098-7.392v-17.027c0-0.621,0.504-1.125,1.125-1.125
				h13.939c0.621,0,1.125,0.504,1.125,1.125v17.027C228.957,163.248,225.327,166.564,220.865,166.564z M215.017,143.27v15.902
				c0,2.836,2.622,5.142,5.842,5.142c3.226,0,5.848-2.306,5.848-5.142V143.27H215.017z"/>
		</g>
		<g>
			<path style="fill:#FCF9F9;" d="M254.746,152.716c0,5.081-4.119,9.2-9.201,9.2c-5.081,0-9.2-4.119-9.2-9.2s4.119-9.2,9.2-9.2
				C250.627,143.516,254.746,147.635,254.746,152.716z"/>
			<path style="fill:#939AA0;" d="M245.545,163.043c-5.693,0-10.324-4.632-10.324-10.327c0-5.693,4.632-10.324,10.324-10.324
				c5.695,0,10.327,4.632,10.327,10.324C255.872,158.411,251.24,163.043,245.545,163.043z M245.545,144.641
				c-4.453,0-8.074,3.621-8.074,8.074c0,4.453,3.621,8.077,8.074,8.077c4.453,0,8.077-3.624,8.077-8.077
				C253.622,148.262,249.998,144.641,245.545,144.641z"/>
		</g>
		<g>
			<path style="fill:#FCF9F9;" d="M254.607,152.716c0,5.076-3.982,9.198-9.065,9.198c-5.076,0-9.071-4.122-9.071-9.198H254.607z"/>
			<path style="fill:#939AA0;" d="M245.542,163.04c-5.622,0-10.196-4.632-10.196-10.324c0-0.621,0.504-1.125,1.125-1.125h18.135
				c0.621,0,1.125,0.504,1.125,1.125C255.731,158.408,251.161,163.04,245.542,163.04z M237.67,153.841
				c0.524,3.976,3.794,6.949,7.872,6.949c4.075,0,7.345-2.974,7.866-6.949H237.67z"/>
		</g>
		<g>
			<path style="fill:#FCF9F9;" d="M254.741,126.913c0,5.076-4.123,9.198-9.205,9.198c-5.076,0-9.199-4.122-9.199-9.198H254.741z"/>
			<path style="fill:#939AA0;" d="M245.536,137.235c-5.692,0-10.324-4.629-10.324-10.321c0-0.621,0.504-1.125,1.125-1.125h18.404
				c0.621,0,1.125,0.504,1.125,1.125C255.866,132.606,251.231,137.235,245.536,137.235z M237.541,128.039
				c0.548,3.92,3.926,6.946,7.995,6.946c4.072,0,7.453-3.026,8.001-6.946H237.541z"/>
		</g>
		<g>
			<path style="fill:#939AA0;" d="M266.633,138.732c-0.621,0-1.125-0.504-1.125-1.125v-9.097c0-0.621,0.504-1.125,1.125-1.125
				s1.125,0.504,1.125,1.125v9.097C267.758,138.228,267.254,138.732,266.633,138.732z"/>
		</g>
		<g>
			<path style="fill:#939AA0;" d="M229.364,175.002h-20.795c-4.239,0-7.691-3.451-7.691-7.69v-64.049c0-4.239,3.451-7.69,7.691-7.69
				h51.501c4.239,0,7.688,3.451,7.688,7.69v13.611c0,0.621-0.504,1.125-1.125,1.125s-1.125-0.504-1.125-1.125v-13.611
				c0-3-2.44-5.44-5.438-5.44h-51.501c-3,0-5.441,2.44-5.441,5.44v64.049c0,3,2.441,5.44,5.441,5.44h20.795
				c0.621,0,1.125,0.504,1.125,1.125C230.489,174.498,229.985,175.002,229.364,175.002z"/>
		</g>
		
			<rect x="210.777" y="105.434" transform="matrix(-1 -1.224647e-16 1.224647e-16 -1 468.7326 216.7953)" style="fill:#939AA0;" width="47.178" height="5.927"/>
	</g>
	<g id="window_1_9_">
		<path style="fill:#FCF9F9;" d="M157.09,287.716H95.802c-1.412,0-2.557-1.145-2.557-2.557v-47.87c0-1.413,1.145-2.558,2.557-2.558
			h61.289c1.412,0,2.557,1.145,2.557,2.558v47.87C159.648,286.571,158.503,287.716,157.09,287.716z"/>
		<g>
			<path style="fill:#BCE4ED;" d="M130.021,274.472c0,1.723-1.396,3.119-3.119,3.119c-1.723,0-3.119-1.396-3.119-3.119
				s1.396-3.119,3.119-3.119C128.625,271.353,130.021,272.75,130.021,274.472z"/>
			<path style="fill:#6A8F9B;" d="M126.901,278.716c-2.338,0-4.242-1.904-4.242-4.242c0-2.341,1.904-4.245,4.242-4.245
				c2.341,0,4.245,1.904,4.245,4.245C131.146,276.811,129.242,278.716,126.901,278.716z M126.901,272.478
				c-1.099,0-1.992,0.893-1.992,1.995c0,1.099,0.893,1.992,1.992,1.992c1.102,0,1.995-0.894,1.995-1.992
				C128.896,273.372,128.003,272.478,126.901,272.478z"/>
		</g>
		<g>
			<path style="fill:#BCE4ED;" d="M130.021,247.975c0,1.723-1.396,3.119-3.119,3.119c-1.723,0-3.119-1.396-3.119-3.119
				c0-1.723,1.396-3.119,3.119-3.119C128.625,244.855,130.021,246.252,130.021,247.975z"/>
			<path style="fill:#6A8F9B;" d="M126.901,252.22c-2.338,0-4.242-1.904-4.242-4.245s1.904-4.245,4.242-4.245
				c2.341,0,4.245,1.904,4.245,4.245S129.242,252.22,126.901,252.22z M126.901,245.979c-1.099,0-1.992,0.893-1.992,1.995
				c0,1.102,0.893,1.995,1.992,1.995c1.102,0,1.995-0.894,1.995-1.995C128.896,246.873,128.003,245.979,126.901,245.979z"/>
		</g>
		<g>
			<path style="fill:#BCE4ED;" d="M126.902,246.977c0,0-4.975-0.071-7.268,3.056c-3.086,4.211-0.861,10.377-2.198,13.078
				c-1.338,2.701-5.07,3.141-5.07,3.141v6.668h14.535V246.977z"/>
			<path style="fill:#6A8F9B;" d="M126.901,274.046h-14.534c-0.621,0-1.125-0.504-1.125-1.125v-6.668
				c0-0.568,0.428-1.046,0.99-1.116c0.032-0.006,3.152-0.413,4.195-2.522c0.41-0.832,0.381-2.379,0.346-4.019
				c-0.056-2.845-0.129-6.387,1.951-9.226c2.608-3.56,7.916-3.516,8.195-3.516c0.618,0.009,1.113,0.518,1.107,1.14
				c-0.009,0.615-0.513,1.11-1.128,1.11h-0.012c0.038,0.009-4.418-0.029-6.346,2.596c-1.632,2.224-1.571,5.215-1.518,7.852
				c0.041,2.004,0.076,3.738-0.58,5.063c-1.131,2.282-3.571,3.208-4.951,3.559v4.623h13.409c0.621,0,1.125,0.504,1.125,1.125
				C128.026,273.542,127.522,274.046,126.901,274.046z"/>
		</g>
		<g>
			<path style="fill:#BCE4ED;" d="M126.902,246.977c0,0,4.975-0.071,7.268,3.056c3.086,4.211,0.861,10.377,2.198,13.078
				c1.338,2.701,5.069,3.141,5.069,3.141v6.668h-14.536V246.977z"/>
			<path style="fill:#6A8F9B;" d="M141.438,274.046h-14.537c-0.621,0-1.125-0.504-1.125-1.125c0-0.621,0.504-1.125,1.125-1.125
				h13.412v-4.623c-1.38-0.352-3.82-1.277-4.954-3.559c-0.653-1.324-0.621-3.056-0.58-5.06c0.053-2.64,0.114-5.628-1.517-7.855
				c-1.922-2.628-6.343-2.593-6.346-2.596c-0.003,0-0.009,0-0.012,0c-0.615,0-1.119-0.495-1.128-1.11
				c-0.006-0.621,0.489-1.131,1.108-1.14c0.284-0.006,5.59-0.044,8.194,3.516c2.08,2.839,2.01,6.384,1.951,9.228
				c-0.032,1.638-0.064,3.188,0.346,4.017c1.046,2.109,4.166,2.517,4.199,2.522c0.563,0.07,0.99,0.548,0.99,1.116v6.668
				C142.563,273.542,142.059,274.046,141.438,274.046z"/>
		</g>
		<g>
			<path style="fill:#939AA0;" d="M108.35,258.77h-4.632c-0.621,0-1.125-0.504-1.125-1.125c0-0.621,0.504-1.125,1.125-1.125h4.632
				c0.621,0,1.125,0.504,1.125,1.125C109.475,258.266,108.972,258.77,108.35,258.77z"/>
		</g>
		<g>
			<path style="fill:#939AA0;" d="M109.024,252.548c-0.17,0-0.343-0.038-0.504-0.12l-3.759-1.881
				c-0.554-0.275-0.779-0.952-0.501-1.509c0.275-0.557,0.955-0.779,1.509-0.501l3.759,1.881c0.554,0.275,0.779,0.952,0.501,1.509
				C109.833,252.319,109.437,252.548,109.024,252.548z"/>
		</g>
		<g>
			<path style="fill:#939AA0;" d="M150.084,258.77h-4.629c-0.621,0-1.125-0.504-1.125-1.125c0-0.621,0.504-1.125,1.125-1.125h4.629
				c0.621,0,1.125,0.504,1.125,1.125C151.209,258.266,150.705,258.77,150.084,258.77z"/>
		</g>
		<g>
			<path style="fill:#939AA0;" d="M144.778,252.548c-0.413,0-0.809-0.228-1.005-0.621c-0.278-0.557-0.053-1.233,0.501-1.509
				l3.759-1.881c0.551-0.278,1.23-0.056,1.509,0.501c0.278,0.557,0.053,1.233-0.501,1.509l-3.759,1.881
				C145.121,252.509,144.948,252.548,144.778,252.548z"/>
		</g>
		<g>
			<path style="fill:#939AA0;" d="M115.033,288.841h-14.115c-4.852,0-8.798-3.946-8.798-8.798v-37.638
				c0-0.621,0.504-1.125,1.125-1.125c0.621,0,1.125,0.504,1.125,1.125v37.638c0,3.609,2.938,6.548,6.548,6.548h14.115
				c0.621,0,1.125,0.504,1.125,1.125S115.654,288.841,115.033,288.841z"/>
		</g>
		<g>
			<path style="fill:#939AA0;" d="M151.976,288.841h-3.439c-0.621,0-1.125-0.504-1.125-1.125s0.504-1.125,1.125-1.125h3.439
				c3.61,0,6.545-2.939,6.545-6.548v-37.638c0-3.61-2.935-6.548-6.545-6.548h-10.538c-0.621,0-1.125-0.504-1.125-1.125
				c0-0.621,0.504-1.125,1.125-1.125h10.538c4.849,0,8.795,3.946,8.795,8.798v37.638
				C160.771,284.894,156.825,288.841,151.976,288.841z"/>
		</g>
	</g>
	<g id="human_4_">
		<g>
			<path style="fill:#F9AA8F;" d="M308.722,156.287c0,0.69,0.03,1.17,0.03,1.38c0.12,2.19-7.89,2.58-7.89,2.58l0.78,6.9l5.46,1.56
				l-0.21,1.14l-1.71,8.97l-22.05-4.8l8.64-5.94l-0.18-6.96c0,0-7.08,0.09-9.69-2.97c-2.58-3.06-2.46-9.87-2.46-9.87
				s-2.73-1.95-2.73-4.14c0-2.22,2.73-2.13,3.69-4.35c0.96-2.19-0.21-8.16,1.98-12.75c2.22-4.62,9.96-6.81,9.96-6.81l16.41-0.39
				C308.752,119.837,308.662,149.237,308.722,156.287z"/>
			<path style="fill:#F9AA8F;" d="M282.292,205.427c0,0-1.62,8.22-3.03,15.3c-0.9,4.59-1.71,8.67-1.95,9.81
				c-0.57,2.85-10.05,20.19-10.23,22.98c-0.21,2.76-1.65,11.49-1.53,13.2c0.09,1.71,1.05,4.98,0.57,5.46
				c-0.48,0.48-1.35,0.27-1.35,0.27s0.66,1.65,0.48,2.13c-0.12,0.3-0.66,0.27-1.08,0.18c-0.27-0.03-0.45-0.09-0.45-0.09
				s-0.09,1.83-0.48,1.83c-0.39,0-1.17-0.12-1.17-0.12s-0.18,2.31-1.32,1.26c-1.14-1.05-6.6-8.82-6.03-13.11
				c0.57-4.32,7.17-15.78,7.17-15.78s5.64-22.08,5.88-24.24c0.27-2.19,1.71-16.74,1.71-16.74L282.292,205.427z"/>
			<path style="fill:#F9AA8F;" d="M343.222,217.727c-0.09,2.85-2.34,4.65-3.6,5.43c-0.51,0.3-0.84,0.45-0.84,0.45l-15.72-2.7
				l-0.78-4.68l-3.18-19.32l15.27-3.21c0,0,1.38,3.09,3.06,7.08c2.37,5.67,5.34,13.17,5.73,16.23
				C343.222,217.307,343.222,217.517,343.222,217.727z"/>
			<path style="fill:#1E5259;" d="M275.02,374.143c0.574,0.383,22.596,0,22.596,0s0.671-2.202,0.574-4.117
				c-0.096-1.915-1.436-6.415-1.436-6.415l-11.106,0.67c0,0-13.994,6.415-14.281,8.138
				C271.08,374.143,275.02,374.143,275.02,374.143z"/>
			<path style="fill:#1E5259;" d="M306.329,374.313h15.702c0,0,0.894-5.692-1.277-7.862c-2.17-2.17-3.064-4.468-3.064-4.468
				l-6,2.298c0,0-3.574,2.596-4.213,4.681C306.84,371.047,306.329,374.313,306.329,374.313z"/>
			<path style="fill:#6A8F9B;" d="M325.254,260.289c-0.45,30.57-4.95,103.98-4.95,103.98h-9.39l-6.87-85.38l-4.23,1.14l-2.28,84.24
				h-12.42c0,0-4.83-63.18-5.85-92.88c-0.15-4.05-0.27-8.07-0.39-12.03c2.76,1.83,6.27,3.57,9.84,3.93
				C294.054,263.799,313.074,261.729,325.254,260.289z"/>
			<path style="fill:#CC6148;" d="M300.862,160.247l0.78,6.9l5.46,1.56l-0.21,1.14l-8.28-1.47l-0.24-5.25l-6.78-2.01
				c0,0,4.71-0.57,10.11-2.28c3.54-1.14,5.85-2.07,7.02-2.55c0,0.69,0.03,1.17,0.03,1.38
				C308.872,159.857,300.862,160.247,300.862,160.247z"/>
			<path style="fill:#FCF9F9;" d="M337.974,202.028l-12.69,9.06c0,0,0,17.61,0,44.82c0,1.32,0,2.79-0.03,4.38
				c-12.18,1.44-31.2,3.51-36.54,3c-3.57-0.36-7.08-2.1-9.84-3.93c-0.84-25.11-1.41-46.98-1.41-46.98l-8.28-2.58
				c0,0,3.84-25.89,5.73-28.95c1.92-3.09,14.43-10.98,14.43-10.98s-1.32,6.06,6.51,6.69c7.86,0.63,9.45-8.49,9.45-8.49
				s15.45,5.22,19.8,9.18C329.424,181.208,337.974,202.028,337.974,202.028z"/>
			<path style="fill:#773128;" d="M307.854,160.539c-2.4,0.57-3.72,1.35-4.26-2.1c-0.39-2.4,0-8.43,0-8.43s5.52-1.44,4.17-6.42
				c-1.35-4.98-7.29-2.1-7.29-2.1s-0.36-8.25-0.57-9.39c0-0.09-0.09-0.18-0.24-0.21c-1.44-0.48-8.76,1.53-9.99-1.5
				c-1.11-2.76,0-3.75,0-3.75s-11.79,0.96-11.79-5.64c0-12.06,11.49-11.4,11.49-11.4s2.4-3.45,9-3.15c6.6,0.27,8.16,8.43,8.16,8.43
				s4.11-6.24,9.57-0.6c1.26,1.32,1.92,2.61,2.19,3.84c0.9,4.11-2.49,7.38-2.49,7.38s5.31-0.9,6.03,2.49
				C323.454,135.638,310.464,159.909,307.854,160.539z"/>
			<path style="fill:#A54D3C;" d="M318.294,118.119c-1.26,4.62-9.54,1.74-9.54,1.74s1.8,4.68-1.92,5.88
				c-3.03,0.99-4.86,0.36-5.43,0.12c0.48,0.45,1.77,1.89,0.06,4.47c-0.42,0.63-1.02,1.14-1.8,1.56c-1.44-0.48-8.76,1.53-9.99-1.5
				c-1.11-2.76,0-3.75,0-3.75s-11.79,0.96-11.79-5.64c0-12.06,11.49-11.4,11.49-11.4s2.4-3.45,9-3.15c6.6,0.27,8.16,8.43,8.16,8.43
				s4.11-6.24,9.57-0.6C317.364,115.598,318.024,116.888,318.294,118.119z"/>
			<g>
				<path style="fill:#CC6148;" d="M287.117,152.859c-0.314,0-0.601-0.196-0.706-0.501c-0.123-0.349,0.023-0.732,0.349-0.908
					l3.19-1.723c0.279-0.146,0.61-0.111,0.85,0.091c0.235,0.205,0.319,0.533,0.211,0.826c-0.563,1.538-3.229,2.103-3.756,2.203
					C287.208,152.856,287.161,152.859,287.117,152.859z"/>
			</g>
			<g>
				<path style="fill:#CC6148;" d="M301.478,146.923c-0.179,0-0.357-0.064-0.498-0.19c-0.267-0.237-0.328-0.63-0.149-0.938
					c0.132-0.225,1.345-2.209,3.167-2.285c0.337,0,0.627,0.188,0.738,0.498c0.111,0.311,0.006,0.656-0.255,0.853l-2.552,1.913
					C301.795,146.874,301.637,146.923,301.478,146.923z"/>
			</g>
			<path style="fill:#773128;" d="M286.084,141.028c0,0.992-0.44,1.795-0.982,1.795c-0.542,0-0.981-0.804-0.981-1.795
				s0.439-1.795,0.981-1.795C285.645,139.233,286.084,140.037,286.084,141.028z"/>
			<path style="fill:#773128;" d="M283.542,134.924c-0.287-0.191-0.479-1.819,0-1.819c0.478,0,2.489,0.015,3.351,0.63
				c0.862,0.615,1.245,1.477,1.245,1.477s-1.819-0.287-2.825-0.431C284.308,134.637,283.542,134.924,283.542,134.924z"/>
		</g>
		<g>
			<g>
				<path style="fill:#DD4231;" d="M290.307,243.682c-7.655,0-13.881-6.226-13.881-13.881s6.226-13.881,13.881-13.881
					c7.655,0,13.881,6.226,13.881,13.881S297.962,243.682,290.307,243.682z M290.307,218.171c-6.413,0-11.631,5.218-11.631,11.631
					s5.218,11.631,11.631,11.631c6.413,0,11.631-5.218,11.631-11.631S296.72,218.171,290.307,218.171z"/>
			</g>
			<g>
				<path style="fill:#DD4231;" d="M297.629,229.802c0,4.044-3.278,7.322-7.321,7.322c-4.044,0-7.322-3.278-7.322-7.322
					c0-4.044,3.278-7.322,7.322-7.322C294.351,222.48,297.629,225.758,297.629,229.802z"/>
				<path style="fill:#DD4231;" d="M290.307,238.623c-4.863,0-8.821-3.958-8.821-8.821s3.958-8.821,8.821-8.821
					c4.864,0,8.821,3.958,8.821,8.821S295.171,238.623,290.307,238.623z M290.307,223.98c-3.211,0-5.821,2.61-5.821,5.821
					c0,3.211,2.61,5.821,5.821,5.821s5.821-2.61,5.821-5.821C296.129,226.591,293.518,223.98,290.307,223.98z"/>
			</g>
		</g>
		<path id="hand_6_" style="fill:#F9AA8F;" d="M341.812,226.217c-0.45,0.33-1.29,0.6-2.43,0.84c-3.45,0.72-9.45,1.02-13.53,0.96
			c-5.94-0.15-17.49-3.33-18.75-3.27c-1.29,0.06-3.9,4.35-6.33,6.69c-2.43,2.37-8.1,6.21-9.15,5.73c-1.14-0.51-0.75-1.65-0.75-1.65
			s-0.96,1.38-2.1,0.9c-0.81-0.33-0.12-1.53,0-1.74c-0.24,0.09-1.44,0.6-1.83,0.3c-0.72-0.57,0.24-1.68,0.24-1.68
			s-0.99,0.57-1.38-0.09c-0.36-0.66,0.33-2.97,1.2-4.5c0.84-1.53,13.02-8.7,15.51-9.87c2.49-1.14,6.99-1.32,10.53-1.44
			c1.92-0.06,5.97-0.63,9.24-1.17c2.73-0.45,4.92-0.84,4.92-0.84s6.93,0.33,11.67,0.81c2.22,0.24,3.93,0.51,4.29,0.81
			c0.03,0.03,0.06,0.06,0.06,0.09C343.432,218.087,343.612,224.867,341.812,226.217z"/>
	</g>
	<g id="bubbles_6_">
		<path style="fill:#FCF9F9;" d="M236.337,232.524c0,1.503-1.219,2.722-2.722,2.722c-1.503,0-2.722-1.218-2.722-2.722
			s1.219-2.722,2.722-2.722C235.119,229.802,236.337,231.02,236.337,232.524z"/>
		<path style="fill:#FCF9F9;" d="M246.596,213.751c0,0.599-0.486,1.085-1.085,1.085c-0.599,0-1.085-0.486-1.085-1.085
			c0-0.599,0.485-1.085,1.085-1.085C246.11,212.665,246.596,213.152,246.596,213.751z"/>
		<path style="fill:#FCF9F9;" d="M248.46,281.562c0,2.228-1.806,4.034-4.034,4.034c-2.228,0-4.035-1.806-4.035-4.034
			c0-2.228,1.807-4.035,4.035-4.035C246.654,277.527,248.46,279.333,248.46,281.562z"/>
		<path style="fill:#FCF9F9;" d="M236.337,275.061c0,0.752-0.609,1.361-1.361,1.361c-0.752,0-1.361-0.609-1.361-1.361
			c0-0.751,0.609-1.361,1.361-1.361C235.728,273.701,236.337,274.31,236.337,275.061z"/>
		<path style="fill:#FCF9F9;" d="M346.701,253.161c0,0.961-0.779,1.74-1.739,1.74c-0.961,0-1.74-0.779-1.74-1.74
			c0-0.961,0.779-1.74,1.74-1.74C345.923,251.421,346.701,252.2,346.701,253.161z"/>
		<path style="fill:#FCD9D9;" d="M343.351,325.019c0,2.632-2.134,4.766-4.766,4.766c-2.632,0-4.766-2.134-4.766-4.766
			s2.134-4.766,4.766-4.766C341.217,320.253,343.351,322.387,343.351,325.019z"/>
		<path style="fill:#FCD9D9;" d="M349.779,343.244c0,1.33-1.078,2.408-2.409,2.408c-1.33,0-2.408-1.078-2.408-2.408
			c0-1.33,1.078-2.409,2.408-2.409C348.701,340.836,349.779,341.914,349.779,343.244z"/>
		<circle style="fill:#FCD9D9;" cx="351.804" cy="291.59" r="2.026"/>
		<path style="fill:#FCD9D9;" d="M131.383,332.471c0,1.574-1.276,2.849-2.849,2.849c-1.574,0-2.849-1.276-2.849-2.849
			c0-1.573,1.276-2.849,2.849-2.849C130.107,329.622,131.383,330.898,131.383,332.471z"/>
		<path style="fill:#FCD9D9;" d="M124.952,307.585c0,0.948-0.768,1.716-1.716,1.716s-1.716-0.768-1.716-1.716
			s0.768-1.716,1.716-1.716S124.952,306.637,124.952,307.585z"/>
		<path style="fill:#FCD9D9;" d="M287.857,95.967c0,2.063-1.673,3.736-3.736,3.736c-2.063,0-3.736-1.673-3.736-3.736
			s1.673-3.736,3.736-3.736C286.184,92.232,287.857,93.904,287.857,95.967z"/>
		<path style="fill:#FCD9D9;" d="M272.913,84.526c0,1.03-0.835,1.865-1.864,1.865c-1.03,0-1.865-0.835-1.865-1.865
			c0-1.03,0.835-1.864,1.865-1.864C272.078,82.662,272.913,83.497,272.913,84.526z"/>
	</g>
</g>
</svg>
